<svg width="320" height="180" viewBox="0 0 320 180" fill="none" xmlns="http://www.w3.org/2000/svg">
  <rect width="320" height="180" fill="#E6EDF3"/>
  <rect y="124" width="320" height="56" fill="#D7DDE5"/>
  <rect x="18" y="20" width="130" height="92" rx="10" fill="#F5F8FB"/>
  <rect x="32" y="32" width="102" height="6" rx="3" fill="#C9D6E4"/>
  <rect x="32" y="44" width="82" height="6" rx="3" fill="#C9D6E4"/>
  <rect x="32" y="56" width="94" height="6" rx="3" fill="#C9D6E4"/>
  <rect x="172" y="20" width="132" height="92" rx="10" fill="#DDE7F1"/>
  <rect x="188" y="36" width="100" height="8" rx="4" fill="#9CB4CD"/>
  <rect x="188" y="52" width="100" height="8" rx="4" fill="#9CB4CD"/>
  <rect x="188" y="68" width="100" height="8" rx="4" fill="#9CB4CD"/>
  <rect x="188" y="84" width="70" height="8" rx="4" fill="#9CB4CD"/>
  <rect x="98" y="122" width="124" height="30" rx="6" fill="#B7C5D4"/>
  <circle cx="50" cy="148" r="15" fill="#AEBECD"/>
  <circle cx="270" cy="148" r="15" fill="#AEBECD"/>
</svg>
