<svg width="320" height="180" viewBox="0 0 320 180" fill="none" xmlns="http://www.w3.org/2000/svg">
  <rect width="320" height="180" fill="#E7EEF4"/>
  <rect y="120" width="320" height="60" fill="#E3D8CB"/>
  <rect x="20" y="28" width="78" height="90" rx="6" fill="#F7FAFD"/>
  <rect x="32" y="43" width="54" height="10" rx="5" fill="#C9D6E4"/>
  <rect x="32" y="60" width="54" height="10" rx="5" fill="#C9D6E4"/>
  <rect x="32" y="77" width="54" height="10" rx="5" fill="#C9D6E4"/>
  <rect x="32" y="94" width="54" height="10" rx="5" fill="#C9D6E4"/>
  <rect x="122" y="50" width="84" height="62" rx="8" fill="#3A7BD5"/>
  <rect x="131" y="59" width="66" height="8" rx="4" fill="#9BC6FF"/>
  <rect x="131" y="72" width="66" height="8" rx="4" fill="#9BC6FF"/>
  <rect x="131" y="85" width="66" height="8" rx="4" fill="#9BC6FF"/>
  <rect x="131" y="98" width="66" height="8" rx="4" fill="#9BC6FF"/>
  <rect x="222" y="58" width="82" height="54" rx="8" fill="#DFE8F0"/>
  <rect x="233" y="69" width="60" height="8" rx="4" fill="#BCC9D6"/>
  <rect x="233" y="83" width="60" height="8" rx="4" fill="#BCC9D6"/>
  <circle cx="50" cy="142" r="18" fill="#BFC9D3"/>
  <circle cx="272" cy="142" r="18" fill="#BFC9D3"/>
</svg>
